<svg width="52" height="52" viewBox="0 0 52 52" fill="none" xmlns="http://www.w3.org/2000/svg">
<path d="M22.9469 31.7852L13.9137 27.0879V25.9844L22.9469 21.2871V22.625L15.4371 26.5312L22.9469 30.4473V31.7852ZM37.018 31.7852L27.9848 27.0879V25.9844L37.018 21.2871V22.625L29.5082 26.5312L37.018 30.4473V31.7852Z" fill="#CDCDCD"/>
<path d="M26 50C12.7452 50 2 39.2548 2 26H-2C-2 41.464 10.536 54 26 54V50ZM50 26C50 39.2548 39.2548 50 26 50V54C41.464 54 54 41.464 54 26H50ZM26 2C39.2548 2 50 12.7452 50 26H54C54 10.536 41.464 -2 26 -2V2ZM26 -2C10.536 -2 -2 10.536 -2 26H2C2 12.7452 12.7452 2 26 2V-2Z" fill="#CDCDCD"/>
</svg>
