<svg width="52" height="52" viewBox="0 0 52 52" fill="none" xmlns="http://www.w3.org/2000/svg">
<path d="M23.0055 27.0879L13.9723 31.7852V30.4473L21.482 26.5312L13.9723 22.625V21.2871L23.0055 25.9844V27.0879ZM37.0766 27.0879L28.0434 31.7852V30.4473L35.5531 26.5312L28.0434 22.625V21.2871L37.0766 25.9844V27.0879Z" fill="#292929"/>
<path d="M26 50C12.7452 50 2 39.2548 2 26H-2C-2 41.464 10.536 54 26 54V50ZM50 26C50 39.2548 39.2548 50 26 50V54C41.464 54 54 41.464 54 26H50ZM26 2C39.2548 2 50 12.7452 50 26H54C54 10.536 41.464 -2 26 -2V2ZM26 -2C10.536 -2 -2 10.536 -2 26H2C2 12.7452 12.7452 2 26 2V-2Z" fill="#F1CDB3"/>
</svg>
